<?xml version="1.0" encoding="utf-8"?><svg xmlns="http://www.w3.org/2000/svg" xmlns:xlink="http://www.w3.org/1999/xlink"><symbol viewBox="0 0 12 8" id="arrow-down" xmlns="http://www.w3.org/2000/svg"><path d="M6 4.977L10.125.852l1.178 1.178L6 7.333.697 2.03 1.875.852 6 4.977z"/></symbol><symbol viewBox="0 0 8 14" id="arrow-left" xmlns="http://www.w3.org/2000/svg"><path d="M2.828 7l4.95 4.95-1.414 1.414L0 7 6.364.636 7.778 2.05 2.828 7z"/></symbol><symbol viewBox="0 0 8 14" id="arrow-right" xmlns="http://www.w3.org/2000/svg"><path d="M5.172 7l-4.95 4.95 1.414 1.414L8 7 1.636.636.222 2.05 5.172 7z"/></symbol><symbol viewBox="0 0 16 16" id="calendar" xmlns="http://www.w3.org/2000/svg"><path d="M11.75 2.25h3a.75.75 0 01.75.75v12a.75.75 0 01-.75.75H1.25A.75.75 0 01.5 15V3a.75.75 0 01.75-.75h3V.75h1.5v1.5h4.5V.75h1.5v1.5zm-1.5 1.5h-4.5v1.5h-1.5v-1.5H2v3h12v-3h-2.25v1.5h-1.5v-1.5zM14 8.25H2v6h12v-6z"/></symbol><symbol viewBox="0 0 24 24" id="close" xmlns="http://www.w3.org/2000/svg"><path d="M12 10.586l4.95-4.95 1.414 1.414-4.95 4.95 4.95 4.95-1.414 1.414-4.95-4.95-4.95 4.95-1.414-1.414 4.95-4.95-4.95-4.95L7.05 5.636l4.95 4.95z"/></symbol><symbol viewBox="0 0 17 18" id="exit" xmlns="http://www.w3.org/2000/svg"><path d="M1.167 17.333a.833.833 0 01-.834-.833v-15a.833.833 0 01.834-.833h11.666a.833.833 0 01.834.833V4H12V2.333H2v13.334h10V14h1.667v2.5a.833.833 0 01-.834.833H1.167zm10.833-5v-2.5H6.167V8.167H12v-2.5L16.167 9 12 12.333z"/></symbol><symbol viewBox="0 0 18 14" id="eye" xmlns="http://www.w3.org/2000/svg"><path d="M9 .25A8.253 8.253 0 0117.114 7 8.253 8.253 0 01.886 7 8.253 8.253 0 019 .25zm0 12A6.754 6.754 0 0015.583 7 6.754 6.754 0 002.417 7 6.754 6.754 0 009 12.25zm0-1.875a3.375 3.375 0 110-6.75 3.375 3.375 0 010 6.75zm0-1.5a1.875 1.875 0 100-3.75 1.875 1.875 0 000 3.75z"/></symbol><symbol viewBox="0 0 18 18" id="facebook" xmlns="http://www.w3.org/2000/svg"><path d="M12.402 18v-6.966h2.333l.349-2.708h-2.682V6.598c0-.784.218-1.319 1.342-1.319h1.434V2.857a19.188 19.188 0 00-2.09-.107c-2.067 0-3.482 1.262-3.482 3.58v1.996H7.268v2.708h2.338V18H1a1 1 0 01-1-1V1a1 1 0 011-1h16a1 1 0 011 1v16a1 1 0 01-1 1h-4.598z"/></symbol><symbol viewBox="0 0 18 16" id="heart" xmlns="http://www.w3.org/2000/svg"><path d="M9 1.774a4.999 4.999 0 017.066 7.053l-7.067 7.077-7.065-7.077a5 5 0 017.067-7.053zm5.69 1.368a3.332 3.332 0 00-4.576-.128l-1.112.998-1.114-.997a3.333 3.333 0 00-4.738 4.67L9 13.546l5.85-5.858a3.334 3.334 0 00-.16-4.545z"/></symbol><symbol viewBox="0 0 20 20" id="instagram" xmlns="http://www.w3.org/2000/svg"><path d="M10 0c2.717 0 3.056.01 4.122.06 1.065.05 1.79.217 2.428.465.66.254 1.216.598 1.772 1.153.509.5.902 1.105 1.153 1.772.247.637.415 1.363.465 2.428.047 1.066.06 1.405.06 4.122 0 2.717-.01 3.056-.06 4.122-.05 1.065-.218 1.79-.465 2.428a4.883 4.883 0 01-1.153 1.772c-.5.508-1.105.902-1.772 1.153-.637.247-1.363.415-2.428.465-1.066.047-1.405.06-4.122.06-2.717 0-3.056-.01-4.122-.06-1.065-.05-1.79-.218-2.428-.465a4.89 4.89 0 01-1.772-1.153A4.904 4.904 0 01.525 16.55C.277 15.913.11 15.187.06 14.122.013 13.056 0 12.717 0 10c0-2.717.01-3.056.06-4.122.05-1.066.217-1.79.465-2.428a4.88 4.88 0 011.153-1.772A4.897 4.897 0 013.45.525C4.088.277 4.812.11 5.878.06 6.944.013 7.283 0 10 0zm0 5a5 5 0 100 10 5 5 0 000-10zm6.5-.25a1.25 1.25 0 10-2.5 0 1.25 1.25 0 002.5 0zM10 7a3 3 0 110 6 3 3 0 010-6z"/></symbol><symbol viewBox="0 0 14 18" id="location" xmlns="http://www.w3.org/2000/svg"><path clip-rule="evenodd" d="M9.083 7.75a2.083 2.083 0 10-4.166 0 2.083 2.083 0 004.166 0z"/><path clip-rule="evenodd" d="M7 16.5C6 16.5.75 12.249.75 7.803.75 4.323 3.548 1.5 7 1.5s6.25 2.822 6.25 6.303c0 4.446-5.252 8.697-6.25 8.697z"/></symbol><symbol viewBox="0 0 12 18" id="man" xmlns="http://www.w3.org/2000/svg"><path d="M7.042 3.375a1.667 1.667 0 100-3.333 1.667 1.667 0 000 3.333zm4.228 4.833L9.126 7.5s-1.187-2.75-1.23-2.833a1.676 1.676 0 00-1.457-.875c-.25 0-.5.062-.709.166L2.813 5.104a.825.825 0 00-.459.459l-1.041 2.5c-.167.416.02.916.458 1.083a.836.836 0 00.312.062.808.808 0 00.771-.52l.854-2.167.875-.333-1.437 7.02-2.792 3.396a.827.827 0 00.104 1.167.8.8 0 00.521.187c.25 0 .48-.104.646-.312l2.917-3.542a.792.792 0 00.166-.354l.5-2.417 2.25 1.625v4.167c0 .458.375.833.834.833a.836.836 0 00.833-.833v-4.583a.81.81 0 00-.333-.667l-2.021-1.48.562-2.812.396.917a.9.9 0 00.5.458l2.5.834c.084.02.167.041.271.041a.854.854 0 00.792-.562.838.838 0 00-.521-1.063z"/></symbol><symbol viewBox="0 0 20 14" id="metro" xmlns="http://www.w3.org/2000/svg"><path d="M19.64 11.6h-1.259L14.476.988 10 7.46 5.216 1.064 1.619 11.6H.359L0 13.012h4.78l1.875-5.164 3.401 4.542.02.029.022-.029 3.247-4.542 1.876 5.164H20l-.36-1.412z"/></symbol><symbol viewBox="0 0 16 19" id="notification" xmlns="http://www.w3.org/2000/svg"><path d="M2.167 14h11.666V8.193c0-3.236-2.611-5.86-5.833-5.86s-5.833 2.624-5.833 5.86V14zM8 .667c4.142 0 7.5 3.369 7.5 7.526v7.474H.5V8.193C.5 4.036 3.858.667 8 .667zM5.917 16.5h4.166a2.083 2.083 0 11-4.166 0z"/></symbol><symbol viewBox="0 0 12 12" id="plus" xmlns="http://www.w3.org/2000/svg"><path d="M5.167 5.167v-5h1.666v5h5v1.666h-5v5H5.167v-5h-5V5.167h5z"/></symbol><symbol viewBox="0 0 12 13" id="reset" xmlns="http://www.w3.org/2000/svg"><path d="M6 5.204L10.537.666l1.297 1.296L7.296 6.5l4.538 4.537-1.296 1.297L6 7.796l-4.537 4.538-1.297-1.297L4.704 6.5.166 1.962 1.463.666 6 5.204z"/></symbol><symbol viewBox="0 0 20 20" id="telegram" xmlns="http://www.w3.org/2000/svg"><path d="M10 20C4.477 20 0 15.523 0 10S4.477 0 10 0s10 4.477 10 10-4.477 10-10 10zm-3.11-8.83l.013-.007.87 2.87c.112.311.266.367.453.341.188-.025.287-.126.41-.244l1.188-1.148 2.55 1.888c.466.257.801.124.917-.432l1.657-7.822c.183-.728-.137-1.02-.702-.788l-9.733 3.76c-.664.266-.66.638-.12.803l2.497.78v-.001z"/></symbol><symbol viewBox="0 0 22 18" id="twitter" xmlns="http://www.w3.org/2000/svg"><path d="M21.162 2.656a8.385 8.385 0 01-2.402.658A4.196 4.196 0 0020.6 1c-.82.488-1.719.83-2.656 1.015a4.182 4.182 0 00-7.126 3.814 11.874 11.874 0 01-8.62-4.37 4.168 4.168 0 00-.566 2.103c0 1.45.738 2.731 1.86 3.481a4.168 4.168 0 01-1.894-.523v.052a4.185 4.185 0 003.355 4.101 4.21 4.21 0 01-1.89.072A4.185 4.185 0 006.97 13.65a8.395 8.395 0 01-6.19 1.732 11.83 11.83 0 006.409 1.88c7.693 0 11.9-6.373 11.9-11.9 0-.18-.005-.362-.013-.54a8.497 8.497 0 002.087-2.165v-.001z"/></symbol><symbol viewBox="0 0 20 20" id="viber" xmlns="http://www.w3.org/2000/svg"><path d="M.004 20l1.352-4.968A9.954 9.954 0 010 10C0 4.477 4.477 0 10 0s10 4.477 10 10-4.477 10-10 10a9.953 9.953 0 01-5.03-1.355L.004 20zM6.391 5.308a.961.961 0 00-.371.1 1.293 1.293 0 00-.294.228c-.12.113-.188.211-.261.306A2.729 2.729 0 004.9 7.62c.002.49.13.967.33 1.413.409.902 1.082 1.857 1.971 2.742.214.213.423.427.648.626a9.448 9.448 0 003.84 2.046l.569.087c.185.01.37-.004.556-.013a1.99 1.99 0 00.833-.231 4.83 4.83 0 00.383-.22s.043-.028.125-.09c.135-.1.218-.171.33-.288.083-.086.155-.187.21-.302.078-.163.156-.474.188-.733.024-.198.017-.306.014-.373-.004-.107-.093-.218-.19-.265l-.582-.261s-.87-.379-1.401-.621a.498.498 0 00-.177-.041.482.482 0 00-.378.127v-.002c-.005 0-.072.057-.795.933a.35.35 0 01-.368.13 1.418 1.418 0 01-.191-.066c-.124-.052-.167-.072-.252-.109l-.005-.002a6.012 6.012 0 01-1.57-1c-.126-.11-.243-.23-.363-.346a6.297 6.297 0 01-1.02-1.268l-.059-.095a.923.923 0 01-.102-.205c-.038-.147.061-.265.061-.265s.243-.266.356-.41c.094-.12.182-.244.263-.373.118-.19.155-.385.093-.536-.28-.684-.57-1.365-.868-2.041-.059-.134-.234-.23-.393-.249a4.439 4.439 0 00-.162-.016 3.385 3.385 0 00-.403.004v.001z"/></symbol><symbol viewBox="0 0 20 16" id="youtube" xmlns="http://www.w3.org/2000/svg"><path d="M19.543 2.498C20 4.28 20 8 20 8s0 3.72-.457 5.502c-.254.985-.997 1.76-1.938 2.022C15.896 16 10 16 10 16s-5.893 0-7.605-.476c-.945-.266-1.687-1.04-1.938-2.022C0 11.72 0 8 0 8s0-3.72.457-5.502c.254-.985.997-1.76 1.938-2.022C4.107 0 10 0 10 0s5.896 0 7.605.476c.945.266 1.687 1.04 1.938 2.022zM8 11.5L14 8 8 4.5v7z"/></symbol></svg>