<?xml version="1.0" encoding="utf-8"?><svg xmlns="http://www.w3.org/2000/svg" xmlns:xlink="http://www.w3.org/1999/xlink"><symbol viewBox="0 0 12 8" id="arrow-down" xmlns="http://www.w3.org/2000/svg"><path d="M6 4.977L10.125.852l1.178 1.178L6 7.333.697 2.03 1.875.852 6 4.977z"/></symbol><symbol viewBox="0 0 8 14" id="arrow-left" xmlns="http://www.w3.org/2000/svg"><path d="M2.828 7l4.95 4.95-1.414 1.414L0 7 6.364.636 7.778 2.05 2.828 7z"/></symbol><symbol viewBox="0 0 8 14" id="arrow-right" xmlns="http://www.w3.org/2000/svg"><path d="M5.172 7l-4.95 4.95 1.414 1.414L8 7 1.636.636.222 2.05 5.172 7z"/></symbol><symbol viewBox="0 0 17 18" id="exit" xmlns="http://www.w3.org/2000/svg"><path d="M1.167 17.333a.833.833 0 01-.834-.833v-15a.833.833 0 01.834-.833h11.666a.833.833 0 01.834.833V4H12V2.333H2v13.334h10V14h1.667v2.5a.833.833 0 01-.834.833H1.167zm10.833-5v-2.5H6.167V8.167H12v-2.5L16.167 9 12 12.333z"/></symbol><symbol viewBox="0 0 18 16" id="heart" xmlns="http://www.w3.org/2000/svg"><path d="M9 1.774a4.999 4.999 0 017.066 7.053l-7.067 7.077-7.065-7.077a5 5 0 017.067-7.053zm5.69 1.368a3.332 3.332 0 00-4.576-.128l-1.112.998-1.114-.997a3.333 3.333 0 00-4.738 4.67L9 13.546l5.85-5.858a3.334 3.334 0 00-.16-4.545z"/></symbol><symbol viewBox="0 0 14 18" id="location" xmlns="http://www.w3.org/2000/svg"><path clip-rule="evenodd" d="M9.083 7.75a2.083 2.083 0 10-4.166 0 2.083 2.083 0 004.166 0z"/><path clip-rule="evenodd" d="M7 16.5C6 16.5.75 12.249.75 7.803.75 4.323 3.548 1.5 7 1.5s6.25 2.822 6.25 6.303c0 4.446-5.252 8.697-6.25 8.697z"/></symbol><symbol viewBox="0 0 12 18" id="man" xmlns="http://www.w3.org/2000/svg"><path d="M7.042 3.375a1.667 1.667 0 100-3.333 1.667 1.667 0 000 3.333zm4.228 4.833L9.126 7.5s-1.187-2.75-1.23-2.833a1.676 1.676 0 00-1.457-.875c-.25 0-.5.062-.709.166L2.813 5.104a.825.825 0 00-.459.459l-1.041 2.5c-.167.416.02.916.458 1.083a.836.836 0 00.312.062.808.808 0 00.771-.52l.854-2.167.875-.333-1.437 7.02-2.792 3.396a.827.827 0 00.104 1.167.8.8 0 00.521.187c.25 0 .48-.104.646-.312l2.917-3.542a.792.792 0 00.166-.354l.5-2.417 2.25 1.625v4.167c0 .458.375.833.834.833a.836.836 0 00.833-.833v-4.583a.81.81 0 00-.333-.667l-2.021-1.48.562-2.812.396.917a.9.9 0 00.5.458l2.5.834c.084.02.167.041.271.041a.854.854 0 00.792-.562.838.838 0 00-.521-1.063z"/></symbol><symbol viewBox="0 0 20 14" id="metro" xmlns="http://www.w3.org/2000/svg"><path d="M19.64 11.6h-1.259L14.476.988 10 7.46 5.216 1.064 1.619 11.6H.359L0 13.012h4.78l1.875-5.164 3.401 4.542.02.029.022-.029 3.247-4.542 1.876 5.164H20l-.36-1.412z"/></symbol><symbol viewBox="0 0 16 19" id="notification" xmlns="http://www.w3.org/2000/svg"><path d="M2.167 14h11.666V8.193c0-3.236-2.611-5.86-5.833-5.86s-5.833 2.624-5.833 5.86V14zM8 .667c4.142 0 7.5 3.369 7.5 7.526v7.474H.5V8.193C.5 4.036 3.858.667 8 .667zM5.917 16.5h4.166a2.083 2.083 0 11-4.166 0z"/></symbol><symbol viewBox="0 0 12 12" id="plus" xmlns="http://www.w3.org/2000/svg"><path d="M5.167 5.167v-5h1.666v5h5v1.666h-5v5H5.167v-5h-5V5.167h5z"/></symbol><symbol viewBox="0 0 12 13" id="reset" xmlns="http://www.w3.org/2000/svg"><path d="M6 5.204L10.537.666l1.297 1.296L7.296 6.5l4.538 4.537-1.296 1.297L6 7.796l-4.537 4.538-1.297-1.297L4.704 6.5.166 1.962 1.463.666 6 5.204z"/></symbol></svg>